<?xml version="1.0" standalone="no"?><!DOCTYPE svg PUBLIC "-//W3C//DTD SVG 1.1//EN" "http://www.w3.org/Graphics/SVG/1.1/DTD/svg11.dtd"><svg t="1622083570823" class="icon" viewBox="0 0 1024 1024" version="1.1" xmlns="http://www.w3.org/2000/svg" p-id="13465" xmlns:xlink="http://www.w3.org/1999/xlink" width="32" height="32"><defs><style type="text/css"></style></defs><path d="M825.3 185.1c-154-45.7-552.9 90.1-552.9 497.6h553.3s153.6-451.9-0.4-497.6z" fill="#A4A9AD" p-id="13466"></path><path d="M875 229.4H551c-17.2 8.5-34.3 18.1-51.1 28.8h385.6c-2.7-10.5-6.2-20.2-10.5-28.8z" fill="" p-id="13467"></path><path d="M888.1 269.4c-57.9-57.9-214.2-44.1-353.4 37.4-21.1-10.4-41.2-21-60.4-31.2-111.4 80.6-201.9 213-201.9 407.1h553.3s91.6-269.5 62.4-413.3z" fill="" p-id="13468"></path><path d="M888.1 310.8c-113.6-113.6-605.5 48.9-605.5 456.4h553.3s165.8-342.8 52.2-456.4z" fill="#A4A9AD" p-id="13469"></path><path d="M926.2 401.1H458.9c-11 9.1-21.7 18.7-32.1 28.8h501c0-9.8-0.6-19.4-1.6-28.8z" fill="" p-id="13470"></path><path d="M809.3 377.8c-91.1 0-167.1-22.9-233.2-51.7-150 72.2-293.6 220.8-293.6 441h553.3s84.1-173.9 91.5-315.1c-14.6-43.8-49.5-74.2-118-74.2z" fill="" p-id="13471"></path><path d="M778.7 408.5c-315.3 0-451-275.1-611.7-114.4-160.7 160.7-1.1 511.7-1.1 511.7h668.3c0 0.1 192.4-397.3-55.5-397.3z" fill="#D1D3D3" p-id="13472"></path><path d="M118.1 664.7h768.3c2.6-9.4 5-19.1 7.2-28.8H111.3c2.2 9.8 4.4 19.4 6.8 28.8z m780.1-177.2H95.4c-0.2 9.6-0.2 19.2 0.1 28.8h808.3c-1.1-10.1-3-19.7-5.6-28.8zM507.3 339.1H132.6c-5.4 9.3-10.1 18.9-14.1 28.8h453.8c-22.8-8.9-44.4-18.7-65-28.8z" fill="" p-id="13473"></path><path d="M961.3 841.3c0 4.3-3.5 7.8-7.8 7.8H69.6c-4.3 0-7.8-3.5-7.8-7.8v-27.7c0-4.3 3.5-7.8 7.8-7.8h883.9c4.3 0 7.8 3.5 7.8 7.8v27.7z" fill="#A4A9AD" p-id="13474"></path><path d="M472.5 805.9V629.4c0-15.8-13-28.8-28.8-28.8H322.8c-15.8 0-28.8 13-28.8 28.8v176.5h178.5z" fill="#333E48" p-id="13475"></path><path d="M905.6 805.9V686.7c0-20-15.3-36.3-34-36.3H697.2c-18.7 0-34 16.4-34 36.3v119.2h242.4z" fill="#218649" p-id="13476"></path><path d="M809.2 805.9v-88.7c0-14.9-12.2-27-27-27H601.9c-14.9 0-27 12.2-27 27v88.7h234.3z" fill="#00AD68" p-id="13477"></path></svg>