<?xml version="1.0" encoding="UTF-8"?>
<svg width="95px" height="65px" viewBox="0 0 95 65" version="1.1" xmlns="http://www.w3.org/2000/svg" xmlns:xlink="http://www.w3.org/1999/xlink">
    <title>编组 35</title>
    <defs>
        <radialGradient cx="0%" cy="0%" fx="0%" fy="0%" r="141.421356%" id="radialGradient-1">
            <stop stop-color="#706DFF" offset="0%"></stop>
            <stop stop-color="#AA6AFF" offset="100%"></stop>
        </radialGradient>
    </defs>
    <g id="页面-1" stroke="none" stroke-width="1" fill="none" fill-rule="evenodd">
        <g id="Ant-V-PC-版本" transform="translate(-673.000000, -1511.000000)">
            <g id="编组-24" transform="translate(0.000000, 1245.000000)">
                <g id="Group-3备份-2" transform="translate(630.000000, 204.000000)">
                    <g id="编组-35" transform="translate(43.812500, 62.000000)">
                        <path d="M15.1875,45 L15.1875,50 L1.3125,50 C0.691179656,50 0.1875,48.8807118 0.1875,47.5 C0.1875,46.1192882 0.691179656,45 1.3125,45 L15.1875,45 Z M15.1875,33 L15.1875,38 L1.3125,38 C0.691179656,38 0.1875,36.8807118 0.1875,35.5 C0.1875,34.1192882 0.691179656,33 1.3125,33 L15.1875,33 Z M15.1875,18 L15.1875,23 L1.3125,23 C0.691179656,23 0.1875,21.8807118 0.1875,20.5 C0.1875,19.1192882 0.691179656,18 1.3125,18 L15.1875,18 Z M15.1875,6 L15.1875,11 L1.3125,11 C0.691179656,11 0.1875,9.88071183 0.1875,8.5 C0.1875,7.11928817 0.691179656,6 1.3125,6 L15.1875,6 Z" id="合并形状" fill="#884FE0" fill-rule="nonzero"></path>
                        <path d="M93.4375,45 L93.4375,50 L79.5625,50 C78.9411797,50 78.4375,48.8807118 78.4375,47.5 C78.4375,46.1192882 78.9411797,45 79.5625,45 L93.4375,45 Z M93.4375,33 L93.4375,38 L79.5625,38 C78.9411797,38 78.4375,36.8807118 78.4375,35.5 C78.4375,34.1192882 78.9411797,33 79.5625,33 L93.4375,33 Z M93.4375,18 L93.4375,23 L79.5625,23 C78.9411797,23 78.4375,21.8807118 78.4375,20.5 C78.4375,19.1192882 78.9411797,18 79.5625,18 L93.4375,18 Z M93.4375,6 L93.4375,11 L79.5625,11 C78.9411797,11 78.4375,9.88071183 78.4375,8.5 C78.4375,7.11928817 78.9411797,6 79.5625,6 L93.4375,6 Z" id="合并形状备份" fill="#884FE0" fill-rule="nonzero" transform="translate(85.812500, 28.000000) scale(-1, 1) translate(-85.812500, -28.000000) "></path>
                        <g id="临时芯号领用登记" transform="translate(17.187500, 0.000000)">
                            <path d="M7.96153825,0 L51.0384617,0 C53.8068621,0 54.810751,0.288247947 55.8228366,0.829517347 C56.8349225,1.37078673 57.6292133,2.16507757 58.1704827,3.17716334 C58.7117521,4.1892491 59,5.19313795 59,7.96153825 L59,51.0384617 C59,53.8068621 58.7117521,54.810751 58.1704827,55.8228366 C57.6292133,56.8349225 56.8349225,57.6292133 55.8228366,58.1704827 C54.810751,58.7117521 53.8068621,59 51.0384617,59 L7.96153825,59 C5.19313795,59 4.1892491,58.7117521 3.17716334,58.1704827 C2.16507757,57.6292133 1.37078673,56.8349225 0.829517347,55.8228366 C0.288247947,54.810751 0,53.8068621 0,51.0384617 L0,7.96153825 C0,5.19313795 0.288247947,4.1892491 0.829517347,3.17716334 C1.37078673,2.16507757 2.16507757,1.37078673 3.17716334,0.829517347 C4.1892491,0.288247947 5.19313795,0 7.96153825,0 Z" id="矩形" fill="url(#radialGradient-1)"></path>
                            <g id="合并形状" transform="translate(0.000000, 5.000000)">
                                <g id="path-5-link" transform="translate(0.222168, 2.360947)" fill-rule="nonzero">
                                    <path d="M34.4181137,0 C37.442209,0 39.8937226,2.42725839 39.8937226,5.42143327 C39.8937226,8.41560815 37.442209,10.8428665 34.4181137,10.8428665 C34.0898148,10.8428665 33.768264,10.8142601 33.4558655,10.7594274 L25.0281317,20.1327678 L23.2754216,20.9112426 L0,20.9112426 L0,16.2642998 L22.2227125,16.2642998 L29.6203369,8.03627759 C29.188337,7.26089491 28.9425047,6.36958866 28.9425047,5.42143327 C28.9425047,2.42725839 31.3940184,0 34.4181137,0 Z" id="path-5"></path>
                                    <path d="M53.3022226,33.7278107 C56.3263179,33.7278107 58.7778316,36.155069 58.7778316,39.1492439 C58.7778316,42.1434188 56.3263179,44.5706772 53.3022226,44.5706772 C52.9739237,44.5706772 52.6523729,44.5420708 52.3399744,44.4872381 L43.9122406,53.8605785 L42.1595305,54.6390533 L23.6172625,54.6390533 L23.6172625,49.9921105 L41.1068214,49.9921105 L48.5044458,41.7640882 C48.0724459,40.9887056 47.8266136,40.0973993 47.8266136,39.1492439 C47.8266136,36.155069 50.2781273,33.7278107 53.3022226,33.7278107 Z" id="path-5" transform="translate(41.197547, 44.183432) scale(-1, -1) translate(-41.197547, -44.183432) "></path>
                                </g>
                                <g id="path-5-link" fill="#FCFDFF">
                                    <path d="M39.7267374,0 C43.8238988,0 47.1453044,3.28854362 47.1453044,7.34516765 C47.1453044,11.4017917 43.8238988,14.6903353 39.7267374,14.6903353 C39.2819453,14.6903353 38.8462959,14.6515782 38.4230463,14.5772888 L27.0048263,27.2766532 C26.7041768,27.6459204 26.3477216,27.9221079 25.9354604,28.1052157 C25.5231993,28.2883235 25.0881081,28.3637053 24.6301869,28.3313609 L0,28.3313609 L0,22.035503 L23.2039358,22.035503 L33.2265237,10.88786 C32.6412335,9.83734148 32.3081704,8.62976528 32.3081704,7.34516765 C32.3081704,3.28854362 35.629576,0 39.7267374,0 Z" id="path-5"></path>
                                </g>
                            </g>
                            <path d="M51.6818034,36.9992299 C55.7235317,36.9992299 59,40.2493111 59,44.2584892 C59,48.2676673 55.7235317,51.5177485 51.6818034,51.5177485 C51.2430293,51.5177485 50.813274,51.4794447 50.3957508,51.4060241 L39.1320151,63.956858 C38.8366766,64.3205526 38.4975194,64.5876083 38.1145434,64.7580252 C37.7315673,64.9284421 37.2898874,65.0088437 36.7895037,64.9992299 L18,64.9992299 L18,58.7770077 L35.3825492,58.7770077 L45.2695352,47.7597465 C44.6921638,46.7215148 44.3636069,45.5280623 44.3636069,44.2584892 C44.3636069,40.2493111 47.6400751,36.9992299 51.6818034,36.9992299 Z" id="合并形状-copy" fill="#64F6FC" fill-rule="nonzero" transform="translate(38.500000, 50.999615) rotate(180.000000) translate(-38.500000, -50.999615) "></path>
                        </g>
                    </g>
                </g>
            </g>
        </g>
    </g>
</svg>