<?xml version="1.0" standalone="no"?><!DOCTYPE svg PUBLIC "-//W3C//DTD SVG 1.1//EN" "http://www.w3.org/Graphics/SVG/1.1/DTD/svg11.dtd"><svg t="1638428837944" class="icon" viewBox="0 0 1024 1024" version="1.1" xmlns="http://www.w3.org/2000/svg" p-id="10876" xmlns:xlink="http://www.w3.org/1999/xlink" width="32" height="32"><defs><style type="text/css"></style></defs><path d="M512 0C229.229 0 0 229.229 0 512c0 282.77 229.229 512 512 512s512-229.23 512-512C1024 229.229 794.771 0 512 0zM277.078 678.661c-26.745 0-48.433-21.688-48.433-48.433 0-26.748 21.688-48.436 48.433-48.436 26.748 0 48.433 21.688 48.433 48.436 0 26.746-21.685 48.433-48.433 48.433z m466.335 0c-26.745 0-48.433-21.688-48.433-48.433 0-26.748 21.688-48.436 48.433-48.436 26.744 0 48.432 21.688 48.432 48.436 0 26.746-21.688 48.433-48.432 48.433z m116.263-124.536H841.64v38.757h16.805c-2.99 21.026-20.278 37.435-42.144 37.435H795.98v-0.088c0-29.033-23.533-52.57-52.566-52.57-29.034 0-52.567 23.537-52.567 52.57v0.088H329.649v-0.088c0-29.033-23.538-52.57-52.571-52.57-29.031 0-52.566 23.537-52.566 52.57v0.088h-17.067c-23.976 0-43.375-19.446-43.375-43.375V388.198c0-23.976 19.442-43.375 43.375-43.375h608.856c23.977 0 43.375 19.442 43.375 43.375v165.927z" p-id="10877" fill="#1296db"></path><path d="M200.011 408.301v53.095c0 24.459 19.838 44.297 44.298 44.297h47.988v-99.637h-91.846c-0.044 0.792-0.44 1.453-0.44 2.245zM301.978 406.056h140.678v99.637H301.978zM743.413 599.654c-16.892 0-30.575 13.68-30.575 30.574 0 16.892 13.684 30.571 30.575 30.571s30.57-13.68 30.57-30.571c0-16.894-13.679-30.574-30.57-30.574z" p-id="10878" fill="#1296db"></path><path d="M277.078 630.227m-31.143 0a31.143 31.143 0 1 0 62.286 0 31.143 31.143 0 1 0-62.286 0Z" p-id="10879" fill="#1296db"></path><path d="M753.045 406.056v99.637h0.265c6.951 15.352 22.258 26.175 40.207 26.175h0.614c24.459 0 41.307-19.842 41.307-44.298l1.102-79.269c0-0.792-0.396-1.453-0.44-2.245h-83.055zM452.379 406.056h140.676v99.637H452.379zM602.733 406.056h140.68v99.637h-140.68z" p-id="10880" fill="#1296db"></path></svg>