<?xml version="1.0" standalone="no"?><!DOCTYPE svg PUBLIC "-//W3C//DTD SVG 1.1//EN" "http://www.w3.org/Graphics/SVG/1.1/DTD/svg11.dtd"><svg t="1622083439650" class="icon" viewBox="0 0 2011 1024" version="1.1" xmlns="http://www.w3.org/2000/svg" p-id="11917" xmlns:xlink="http://www.w3.org/1999/xlink" width="62.84375" height="32"><defs><style type="text/css"></style></defs><path d="M21.262431 784.320296h478.938918v218.550046H21.262431z" fill="#F3D24F" p-id="11918"></path><path d="M449.952709 805.449954c27.331896 0 27.331896-42.049071 0-42.049071s-27.226773 42.049071 0 42.049071z" fill="#49494A" p-id="11919"></path><path d="M1505.489512 784.320296h483.459193v218.550046h-483.459193z" fill="#F3D24F" p-id="11920"></path><path d="M21.262431 923.397598h478.938918v83.046915H21.262431zM1505.489512 923.397598h483.459193v83.046915h-483.459193z" fill="#BFAD65" p-id="11921"></path><path d="M512.605825 83.25716A62.127502 62.127502 0 1 0 574.733327 21.129658a62.232625 62.232625 0 0 0-62.127502 62.127502z" fill="#F3D24F" p-id="11922"></path><path d="M491.476167 83.25716a83.25716 83.25716 0 0 0 166.514321 0 83.25716 83.25716 0 0 0-166.514321 0c-1.471717 27.226773 40.892721 27.121651 42.049071 0 2.838312-52.561339 81.890566-52.561339 81.890565 0s-79.052253 52.561339-81.890565 0c-1.156349-27.121651-43.520788-27.226773-42.049071 0z" fill="#49494A" p-id="11923"></path><path d="M21.052186 232.215994A148.958834 148.958834 0 1 0 170.116142 83.25716 148.958834 148.958834 0 0 0 21.052186 232.215994z" fill="#66C089" p-id="11924"></path><path d="M0.02765 232.215994c4.415152 92.297711 74.321733 170.088492 170.088492 170.088492a172.085823 172.085823 0 0 0 170.193615-170.088492A172.085823 172.085823 0 0 0 170.116142 62.127502C74.349383 62.127502 4.442803 139.813161 0.02765 232.215994c-1.261472 27.226773 41.102967 27.121651 42.049071 0 3.363926-69.48609 55.715019-127.724053 127.724053-127.724053a129.090648 129.090648 0 0 1 128.144544 127.724053 129.300893 129.300893 0 0 1-127.829176 127.724053C98.212231 359.940047 45.650892 301.596961 42.076721 232.215994c-0.946104-27.121651-43.310543-27.331896-42.049071 0z" fill="#49494A" p-id="11925"></path><path d="M231.29754 473.998152a87.777436 87.777436 0 1 0 87.777436-87.777435A87.777436 87.777436 0 0 0 231.29754 473.998152z" fill="#66C089" p-id="11926"></path><path d="M210.273005 473.998152c3.15368 59.078945 47.305205 108.907094 108.907094 108.907094a108.801971 108.801971 0 0 0 4.835643-217.603942c-63.073606-2.73319-110.483934 47.620573-113.742737 108.696848-1.471717 27.226773 40.787599 27.121651 42.049071 0 4.625398-85.359614 133.295555-86.095473 133.295555 0s-128.565034 85.359614-133.295555 0c-1.366595-27.121651-43.625911-27.331896-42.049071 0zM148.986484 383.172159V784.320296c0 27.226773 42.049071 27.226773 42.049071 0V383.172159c0-27.226773-42.049071-27.331896-42.049071 0zM116.188209 750.155426c27.226773 0 27.226773-42.049071 0-42.049071s-27.331896 42.049071 0 42.049071zM94.63806 420.595832v237.892619c0 27.226773 42.049071 27.226773 42.049071 0V420.595832c0-27.331896-42.049071-27.331896-42.049071 0z" fill="#49494A" p-id="11927"></path><path d="M219.313555 500.699312l-60.235294 60.130172c-19.23745 19.23745 10.512268 49.197413 29.959963 29.959963l60.235294-60.235294c19.23745-19.23745-10.512268-49.197413-29.959963-29.854841z" fill="#49494A" p-id="11928"></path><path d="M1705.327722 377.180166a109.853198 109.853198 0 1 0 109.748075-109.853198 109.748075 109.748075 0 0 0-109.748075 109.853198z" fill="#66C089" p-id="11929"></path><path d="M1684.092941 377.180166c3.889539 70.957807 56.871368 130.982856 130.982856 130.982856a130.982856 130.982856 0 0 0 5.991993-261.755466c-76.424186-3.363926-132.980187 57.186736-136.659481 130.77261-1.471717 27.226773 40.892721 27.121651 42.049071 0 6.097115-113.532492 177.341957-114.583718 177.341957 0s-171.244841 113.532492-177.341957 0c-1.471717-27.121651-43.836156-27.331896-42.364439 0z" fill="#49494A" p-id="11930"></path><path d="M1860.699039 598.463402a64.755569 64.755569 0 1 0 64.755569-64.755569 64.755569 64.755569 0 0 0-64.755569 64.755569z" fill="#66C089" p-id="11931"></path><path d="M1839.043768 598.463402a85.99035 85.99035 0 1 0 89.459398-85.674982c-49.933272-2.102454-86.831331 37.739041-89.459398 85.674982-1.471717 27.226773 40.892721 27.121651 42.04907 0 2.943435-55.820142 87.1467-56.240632 87.1467 0s-84.098142 55.820142-87.1467 0c-1.156349-27.121651-43.520788-27.226773-42.04907 0z" fill="#49494A" p-id="11932"></path><path d="M1653.922733 549.896725a46.779591 46.779591 0 1 0 46.674468-46.779591 46.674469 46.674469 0 0 0-46.674468 46.779591z" fill="#66C089" p-id="11933"></path><path d="M1632.687952 549.896725a68.014372 68.014372 0 1 0 70.327071-67.804127 69.170722 69.170722 0 0 0-70.537316 67.804127c-1.471717 27.226773 40.892721 27.121651 42.049071 0 1.787086-32.798275 51.194744-33.113643 51.194743 0s-49.407658 32.798275-51.194743 0c-0.946104-27.121651-43.310543-27.226773-41.838826 0zM1793.946139 488.505082V784.320296c0 27.226773 42.049071 27.226773 42.049071 0V488.505082c0-27.331896-42.049071-27.331896-42.049071 0z" fill="#49494A" p-id="11934"></path><path d="M1865.639805 630.841187l-59.078945 59.078944c-19.23745 19.23745 10.512268 49.197413 29.959963 29.854841l59.078945-58.973822c19.23745-19.342573-10.512268-49.302536-29.959963-29.959963zM1733.080109 586.794785l67.068268 52.561339a21.97064 21.97064 0 0 0 29.959963 0 21.024535 21.024535 0 0 0 0-29.959963l-67.173391-52.561339a21.550149 21.550149 0 0 0-29.85484 0 21.024535 21.024535 0 0 0 0 29.85484z" fill="#49494A" p-id="11935"></path><path d="M574.733327 686.661328h859.798378v316.209014H574.733327z" fill="#ECEBEB" p-id="11936"></path><path d="M574.733327 800.404065h331.872293c45.833487 0 46.884714 33.113643 46.884714 71.693666s-1.57684 71.693666-46.884714 71.693666H574.733327c-27.226773 0-27.226773 42.049071 0 42.049071h316.314136c20.498922 0 44.466893 2.838312 63.809465-5.151011 38.580023-15.873524 40.997844-52.561339 40.997845-88.72354 0-32.798275 7.989323-79.367621-13.140335-107.645621-33.534134-44.992506-131.403347-26.596037-178.708552-26.596038H574.733327c-27.226773 0-27.226773 42.049071 0 42.049071z" fill="#49494A" p-id="11937"></path><path d="M884.214489 779.274407v185.751771c0 27.226773 42.049071 27.226773 42.049071 0V779.274407c0-27.331896-42.049071-27.331896-42.049071 0zM814.833522 779.274407v185.751771c0 27.226773 42.049071 27.226773 42.049071 0V779.274407c0-27.331896-42.049071-27.331896-42.049071 0zM745.557678 779.274407v185.751771c0 27.226773 42.049071 27.226773 42.049071 0V779.274407c0-27.331896-42.049071-27.331896-42.049071 0zM676.176711 779.274407v185.751771c0 27.226773 42.049071 27.226773 42.049071 0V779.274407c0-27.331896-42.049071-27.331896-42.049071 0zM606.900866 779.274407v185.751771c0 27.226773 42.049071 27.226773 42.049071 0V779.274407c0-27.331896-42.049071-27.331896-42.049071 0z" fill="#49494A" p-id="11938"></path><path d="M501.252576 686.661328h73.480751v316.209014h-73.480751z" fill="#ECEBEB" p-id="11939"></path><path d="M480.122918 686.661328v316.209014a21.024535 21.024535 0 0 0 21.024535 21.024535h73.585874a21.024535 21.024535 0 0 0 21.024536-21.024535V686.661328c0-27.331896-42.049071-27.331896-42.049071 0v316.209014l21.024535-21.024536h-73.585874l21.024535 21.024536V686.661328c0-27.331896-42.049071-27.331896-42.04907 0zM1434.531705 758.039626h-316.314136c-21.024535 0-44.466893-2.838312-63.809465 5.151012-38.580023 15.978647-40.997844 52.561339-40.997844 88.828662 0 32.693153-7.884201 79.367621 13.140334 107.540499 33.534134 44.992506 131.403347 26.596037 178.708552 26.596037h229.272559c27.226773 0 27.226773-42.049071 0-42.049071h-331.872292c-45.833487 0-46.884714-33.113643-46.884714-71.693666s1.57684-71.693666 46.884714-71.693666h331.872292c27.226773 0 27.226773-42.049071 0-42.049071z" fill="#49494A" p-id="11940"></path><path d="M1082.791227 779.274407v185.751771c0 27.226773 42.049071 27.226773 42.049071 0V779.274407c0-27.331896-42.049071-27.331896-42.049071 0zM1152.067071 779.274407v185.751771c0 27.226773 42.049071 27.226773 42.049071 0V779.274407c0-27.331896-42.049071-27.331896-42.049071 0zM1221.448038 779.274407v185.751771c0 27.226773 42.049071 27.226773 42.049071 0V779.274407c0-27.331896-42.049071-27.331896-42.049071 0zM1290.723883 779.274407v185.751771c0 27.226773 42.049071 27.226773 42.04907 0V779.274407c0-27.331896-42.049071-27.331896-42.04907 0zM1360.10485 779.274407v185.751771c0 27.226773 42.049071 27.226773 42.049071 0V779.274407c0-27.331896-42.049071-27.331896-42.049071 0z" fill="#49494A" p-id="11941"></path><path d="M1434.531705 686.661328h73.480752v316.209014h-73.480752z" fill="#ECEBEB" p-id="11942"></path><path d="M1508.012457 981.740684h-73.585875l21.024536 21.024535V686.661328l-21.024536 21.024536h73.585875l-21.024536-21.024536v316.209014c0 27.226773 42.049071 27.331896 42.049071 0V686.661328a21.024535 21.024535 0 0 0-21.024535-21.024535h-73.585875a21.024535 21.024535 0 0 0-21.024535 21.024535v316.209014a21.024535 21.024535 0 0 0 21.024535 21.024535h73.585875c26.806283 0.105123 26.806283-42.154194 0-42.154193z" fill="#49494A" p-id="11943"></path><path d="M1472.901482 406.614516H536.36355L416.418575 705.478288h1176.427882l-119.944975-298.863772z" fill="#92CAEE" p-id="11944"></path><path d="M1472.901482 406.614516h-54.453547l99.551176 248.089518H436.812374l-20.393799 50.774254h1176.427882l-119.944975-298.863772z" fill="#5DA1D3" p-id="11945"></path><path d="M1472.901482 384.748999H536.153305a21.865517 21.865517 0 0 0-20.3938 15.558156L396.024776 699.065804A21.024535 21.024535 0 0 0 416.418575 725.451596h1176.427882a21.024535 21.024535 0 0 0 20.3938-26.806282l-119.944975-298.338159c-10.512268-25.019197-50.984499-14.086439-40.787599 11.248127l119.944975 298.863771 20.393799-27.016528H416.418575l20.393799 26.806283L557.17784 411.555282l-21.024535 15.558156h936.537932c27.437019 0 27.542141-42.364439 0.210245-42.364439z" fill="#49494A" p-id="11946"></path><path d="M830.496801 477.887691a246.512678 246.512678 0 0 1 348.27143 0h225.488143a436.153988 436.153988 0 0 0-798.932348 0z" fill="#F3D24F" p-id="11947"></path><path d="M845.424221 492.815111c69.90658-65.386305 171.244841-85.885227 258.812032-42.679807 36.792937 18.186223 53.40232 48.461554 94.61041 48.882045 68.645108 0.840981 137.290217 0 205.830202 0a21.024535 21.024535 0 0 0 18.291346-31.536803 457.178524 457.178524 0 0 0-835.830408 0 21.024535 21.024535 0 0 0 18.291346 31.536803H830.496801c27.226773 0 27.226773-42.049071 0-42.049071H605.008658l18.291346 31.536804C692.050235 338.600144 837.750266 237.682373 1004.579955 237.682373s312.634842 100.91777 381.385073 250.927831l18.291346-31.536803h-175.870239c-11.878863 0-36.162201 4.73052-47.200082 0a69.48609 69.48609 0 0 0-15.347911-17.975978 268.588441 268.588441 0 0 0-144.333436-53.507443A274.265065 274.265065 0 0 0 815.464258 462.644903c-19.973309 18.922082 10.091777 48.776922 29.959963 30.170208zM555.601 576.492763H911.441263c27.226773 0 27.331896-42.049071 0-42.049071H555.601c-27.226773 0-27.331896 42.049071 0 42.049071zM519.438799 647.765938h234.738938c27.331896 0 27.331896-42.049071 0-42.049071H519.438799c-27.226773 0-27.331896 42.049071 0 42.049071zM821.981864 647.765938c27.226773 0 27.331896-42.049071 0-42.049071s-27.331896 42.049071 0 42.049071z" fill="#49494A" p-id="11948"></path><path d="M1561.099409 409.13746l-26.28067-65.59655a22.180885 22.180885 0 0 0-20.393799-15.558157H1461.232865c-14.92742 0-46.253978 6.517606-58.973822 0a396.417616 396.417616 0 0 0-23.442357-33.534134 483.564316 483.564316 0 0 0-37.844164-35.531465 540.856175 540.856175 0 0 0-105.122677-69.065599c-24.283338-12.299353-45.728365 24.283338-21.024536 36.582692a488.610204 488.610204 0 0 1 122.362797 85.674982c19.447695 18.922082 35.531465 51.720357 62.337748 58.237963 34.269993 8.199569 79.893235 0 115.634945 0l-20.498922-15.558156 25.649933 65.806796c9.986654 25.019197 50.984499 14.086439 40.787599-11.248126zM1563.412108 492.604866c27.226773 0 27.331896-42.049071 0-42.049071s-27.226773 42.049071 0 42.049071zM1674.316532 691.076481l-28.908736-72.009034a21.865517 21.865517 0 0 0-26.490915-14.822298 21.024535 21.024535 0 0 0-14.401807 26.596038l28.908737 72.009034a21.865517 21.865517 0 0 0 26.070424 14.822297 21.024535 21.024535 0 0 0 14.822297-26.070424zM1652.661261 805.449954h337.023303l-21.024535-21.024536v218.444924l21.024535-21.024536h-483.564316c-27.226773 0-27.331896 42.049071 0 42.049071h483.564316a21.024535 21.024535 0 0 0 21.024536-21.024535V784.320296a21.550149 21.550149 0 0 0-21.024536-21.024536h-337.023303c-27.226773 0-27.331896 42.049071 0 42.049071zM1556.789379 805.449954h33.954625a21.024535 21.024535 0 0 0 21.024535-21.024536 21.550149 21.550149 0 0 0-21.024535-21.024535h-33.954625a21.024535 21.024535 0 0 0 0 42.049071zM396.655512 763.085515H21.052186a21.550149 21.550149 0 0 0-21.024536 21.024535v218.760292a21.024535 21.024535 0 0 0 21.024536 21.024535h479.04404c27.226773 0 27.331896-42.049071 0-42.049071H21.052186l21.024535 21.024536V784.320296l-21.024535 21.024535h375.603326c27.226773 0 27.331896-42.049071 0-42.049071zM1225.022209 404.40694c27.226773 0 27.331896-42.049071 0-42.049071s-27.331896 42.049071 0 42.049071zM782.245492 404.40694c27.226773 0 27.226773-42.049071 0-42.049071s-27.331896 42.049071 0 42.049071z" fill="#49494A" p-id="11949"></path></svg>