<?xml version="1.0" standalone="no"?><!DOCTYPE svg PUBLIC "-//W3C//DTD SVG 1.1//EN" "http://www.w3.org/Graphics/SVG/1.1/DTD/svg11.dtd"><svg t="1622084273398" class="icon" viewBox="0 0 1024 1024" version="1.1" xmlns="http://www.w3.org/2000/svg" p-id="32060" xmlns:xlink="http://www.w3.org/1999/xlink" width="32" height="32"><defs><style type="text/css"></style></defs><path d="M609.28 176.128m-132.096 0a132.096 132.096 0 1 0 264.192 0 132.096 132.096 0 1 0-264.192 0Z" fill="#FFE08A" p-id="32061"></path><path d="M609.28 323.584c-80.896 0-147.456-66.56-147.456-147.456S528.384 28.672 609.28 28.672s147.456 66.56 147.456 147.456c0 81.92-65.536 147.456-147.456 147.456z m0-264.192c-64.512 0-116.736 52.224-116.736 116.736s52.224 116.736 116.736 116.736 116.736-52.224 116.736-116.736S673.792 59.392 609.28 59.392z" fill="#330867" p-id="32062"></path><path d="M609.28 261.12c-65.536 0-119.808-47.104-130.048-109.568-1.024 7.168-2.048 14.336-2.048 22.528 0 72.704 59.392 132.096 132.096 132.096 72.704 0 132.096-59.392 132.096-132.096 0-7.168-1.024-15.36-2.048-22.528-10.24 62.464-64.512 109.568-130.048 109.568z" fill="#F9B52B" p-id="32063"></path><path d="M609.28 321.536c-80.896 0-147.456-66.56-147.456-147.456S528.384 26.624 609.28 26.624 756.736 93.184 756.736 174.08s-65.536 147.456-147.456 147.456z m0-264.192c-64.512 0-116.736 52.224-116.736 116.736s52.224 116.736 116.736 116.736S726.016 238.592 726.016 174.08 673.792 57.344 609.28 57.344z" fill="#330867" p-id="32064"></path><path d="M876.544 544.768H716.8l-71.68-153.6c-7.168-16.384-26.624-23.552-43.008-15.36l-19.456 9.216c-16.384 7.168-23.552 26.624-15.36 43.008l86.016 184.32c6.144 13.312 20.48 20.48 34.816 18.432 2.048 0 4.096 1.024 6.144 1.024h182.272c23.552 0 43.008-19.456 43.008-43.008 0-25.6-19.456-44.032-43.008-44.032z" fill="#FC6B79" p-id="32065"></path><path d="M876.544 646.144H688.128c-20.48 2.048-39.936-8.192-48.128-26.624l-86.016-184.32c-11.264-23.552-1.024-52.224 22.528-63.488l19.456-9.216c23.552-11.264 52.224-1.024 63.488 22.528L727.04 529.408h150.528c31.744 0 58.368 26.624 58.368 58.368s-27.648 58.368-59.392 58.368zM688.128 614.4H876.544c15.36 0 27.648-12.288 27.648-27.648s-12.288-27.648-27.648-27.648H706.56l-75.776-161.792c-4.096-8.192-14.336-12.288-22.528-8.192l-19.456 9.216c-8.192 4.096-12.288 14.336-8.192 22.528l86.016 184.32c3.072 7.168 10.24 11.264 18.432 9.216h3.072z" fill="#330867" p-id="32066"></path><path d="M405.504 569.344c-17.408-14.336-43.008-11.264-57.344 6.144L240.64 712.704 101.376 614.4c-18.432-13.312-43.008-8.192-56.32 9.216-13.312 18.432-8.192 43.008 9.216 56.32l164.864 116.736c13.312 9.216 29.696 9.216 43.008 2.048 9.216-2.048 17.408-7.168 23.552-14.336l125.952-158.72c14.336-16.384 11.264-41.984-6.144-56.32z" fill="#66C1FF" p-id="32067"></path><path d="M243.712 820.224c-11.264 0-22.528-3.072-31.744-10.24L46.08 693.248c-25.6-17.408-30.72-52.224-13.312-77.824s52.224-30.72 77.824-13.312l126.976 90.112 99.328-124.928c9.216-11.264 22.528-19.456 36.864-20.48 14.336-2.048 29.696 2.048 40.96 11.264 11.264 9.216 19.456 22.528 20.48 36.864 2.048 14.336-2.048 29.696-11.264 40.96L299.008 794.624c-7.168 9.216-18.432 16.384-29.696 19.456-8.192 4.096-17.408 6.144-25.6 6.144zM77.824 622.592c-8.192 0-15.36 4.096-20.48 10.24-8.192 11.264-5.12 26.624 6.144 34.816l164.864 116.736c8.192 5.12 18.432 6.144 26.624 1.024l2.048-1.024h2.048c6.144-1.024 10.24-4.096 14.336-9.216L399.36 616.448c4.096-5.12 6.144-12.288 5.12-18.432-1.024-7.168-4.096-12.288-9.216-16.384-5.12-4.096-12.288-6.144-18.432-5.12-7.168 1.024-12.288 4.096-16.384 9.216L243.712 734.208 92.16 627.712c-4.096-3.072-9.216-5.12-14.336-5.12z" fill="#330867" p-id="32068"></path><path d="M429.056 644.096c-54.272-31.744-72.704-100.352-40.96-154.624l73.728-128c21.504-37.888 70.656-51.2 107.52-28.672l29.696 17.408c37.888 21.504 51.2 70.656 28.672 107.52l-91.136 157.696c-21.504 37.888-69.632 50.176-107.52 28.672z" fill="#FC6B79" p-id="32069"></path><path d="M468.992 669.696c-16.384 0-32.768-4.096-47.104-12.288-29.696-17.408-51.2-45.056-59.392-77.824-9.216-32.768-4.096-67.584 13.312-97.28l73.728-128c25.6-45.056 83.968-60.416 129.024-34.816l29.696 17.408c45.056 25.6 60.416 83.968 34.816 129.024l-91.136 157.696c-12.288 21.504-32.768 37.888-57.344 44.032-9.216 1.024-17.408 2.048-25.6 2.048z m-31.744-38.912c30.72 17.408 69.632 7.168 87.04-23.552l91.136-157.696c17.408-30.72 7.168-69.632-23.552-87.04l-29.696-17.408c-30.72-17.408-69.632-7.168-87.04 23.552l-73.728 128c-13.312 22.528-16.384 49.152-10.24 74.752 7.168 25.6 23.552 46.08 46.08 59.392z" fill="#330867" p-id="32070"></path><path d="M549.888 332.8c-10.24-22.528-36.864-32.768-60.416-22.528l-169.984 76.8c-9.216 4.096-16.384 10.24-20.48 18.432l-2.048 2.048-111.616 143.36c-14.336 18.432-11.264 46.08 7.168 60.416 18.432 14.336 46.08 11.264 60.416-7.168L358.4 468.992l167.936-75.776c24.576-10.24 33.792-36.864 23.552-60.416z" fill="#FC6B79" p-id="32071"></path><path d="M221.184 635.904c-12.288 0-25.6-4.096-35.84-12.288-25.6-19.456-29.696-56.32-10.24-81.92l111.616-143.36c0-1.024 1.024-1.024 1.024-2.048 6.144-10.24 15.36-18.432 26.624-23.552L484.352 296.96c30.72-13.312 66.56 0 79.872 30.72 13.312 30.72 0 66.56-30.72 79.872l-163.84 73.728-102.4 132.096c-11.264 15.36-28.672 22.528-46.08 22.528z m287.744-314.368c-4.096 0-8.192 1.024-12.288 3.072l-169.984 76.8c-6.144 3.072-10.24 7.168-13.312 12.288l-3.072 4.096-111.616 143.36c-4.096 6.144-6.144 13.312-5.12 20.48 1.024 7.168 5.12 14.336 10.24 18.432 12.288 9.216 29.696 7.168 38.912-5.12l107.52-138.24L521.216 378.88c15.36-7.168 21.504-24.576 15.36-39.936-5.12-10.24-16.384-17.408-27.648-17.408z" fill="#330867" p-id="32072"></path><path d="M644.096 963.584l-15.36-168.96c0-2.048 0-4.096-1.024-5.12 0-7.168-3.072-13.312-7.168-19.456l-136.192-174.08c-11.264-14.336-32.768-17.408-48.128-6.144-14.336 11.264-17.408 32.768-6.144 48.128l130.048 166.912 14.336 165.888c2.048 18.432 18.432 32.768 36.864 30.72 20.48-2.048 33.792-19.456 32.768-37.888z" fill="#66C1FF" p-id="32073"></path><path d="M609.28 1015.808c-11.264 0-22.528-4.096-31.744-11.264-10.24-8.192-16.384-20.48-17.408-33.792l-14.336-160.768-128-163.84c-8.192-10.24-11.264-23.552-10.24-36.864 2.048-13.312 8.192-24.576 18.432-32.768 10.24-8.192 23.552-11.264 36.864-10.24 13.312 2.048 24.576 8.192 32.768 18.432l136.192 174.08c6.144 7.168 9.216 16.384 10.24 26.624 0 2.048 1.024 4.096 1.024 6.144L659.456 962.56c2.048 26.624-17.408 51.2-45.056 53.248h-5.12zM457.728 598.016c-4.096 0-8.192 1.024-11.264 4.096-4.096 3.072-6.144 7.168-7.168 12.288-1.024 5.12 1.024 10.24 4.096 13.312l133.12 171.008 15.36 169.984c1.024 10.24 10.24 17.408 20.48 17.408 10.24-1.024 17.408-10.24 17.408-20.48L614.4 796.672c0-1.024 0-2.048-1.024-3.072v-3.072c0-4.096-2.048-7.168-4.096-10.24l-136.192-174.08c-3.072-4.096-7.168-6.144-12.288-7.168-1.024-1.024-2.048-1.024-3.072-1.024z" fill="#330867" p-id="32074"></path><path d="M863.232 161.792l-39.936 50.176 63.488 9.216v-1.024c4.096 0 7.168-1.024 11.264-2.048 17.408-7.168 25.6-26.624 18.432-43.008-7.168-17.408-26.624-25.6-43.008-18.432-5.12 1.024-8.192 3.072-10.24 5.12z" fill="#66C1FF" p-id="32075"></path><path d="M885.76 231.424h-1.024l-63.488-9.216c-4.096-1.024-7.168-3.072-8.192-6.144s-1.024-7.168 1.024-10.24l39.936-50.176c1.024-2.048 3.072-3.072 5.12-3.072 3.072-2.048 6.144-4.096 9.216-5.12 22.528-9.216 48.128 2.048 56.32 24.576 9.216 22.528-2.048 48.128-24.576 56.32-3.072 1.024-7.168 2.048-11.264 3.072 0-1.024-1.024 0-3.072 0z m-44.032-27.648l41.984 6.144h1.024c3.072 0 5.12-1.024 7.168-2.048 12.288-5.12 17.408-18.432 13.312-29.696s-18.432-17.408-29.696-13.312c-2.048 1.024-5.12 2.048-6.144 4.096l-1.024 1.024-26.624 33.792z" fill="#330867" p-id="32076"></path><path d="M934.912 300.032c-38.912-23.552-98.304 14.336-98.304 14.336 26.624 5.12 41.984 14.336 50.176 22.528 0 11.264 5.12 21.504 12.288 27.648 7.168 6.144 15.36 9.216 25.6 9.216 20.48 0 37.888-17.408 37.888-37.888 0-16.384-12.288-31.744-27.648-35.84z" fill="#66C1FF" p-id="32077"></path><path d="M924.672 385.024c-11.264 0-22.528-4.096-30.72-11.264-1.024-1.024-2.048-1.024-2.048-2.048-8.192-8.192-13.312-18.432-14.336-29.696-9.216-7.168-23.552-13.312-43.008-17.408-4.096-1.024-7.168-4.096-8.192-8.192s1.024-8.192 5.12-10.24c3.072-2.048 63.488-38.912 107.52-14.336 20.48 6.144 34.816 24.576 34.816 46.08-1.024 25.6-22.528 47.104-49.152 47.104z m-18.432-27.648c5.12 4.096 11.264 7.168 18.432 7.168 15.36 0 27.648-12.288 27.648-27.648 0-12.288-8.192-23.552-20.48-26.624-1.024 0-2.048-1.024-2.048-1.024-19.456-11.264-46.08-5.12-64.512 3.072 12.288 5.12 21.504 10.24 29.696 17.408 2.048 2.048 3.072 5.12 3.072 7.168v1.024c-1.024 7.168 2.048 14.336 8.192 19.456z" fill="#330867" p-id="32078"></path></svg>