<?xml version="1.0" standalone="no"?><!DOCTYPE svg PUBLIC "-//W3C//DTD SVG 1.1//EN" "http://www.w3.org/Graphics/SVG/1.1/DTD/svg11.dtd"><svg t="1622084094701" class="icon" viewBox="0 0 1024 1024" version="1.1" xmlns="http://www.w3.org/2000/svg" p-id="25605" xmlns:xlink="http://www.w3.org/1999/xlink" width="32" height="32"><defs><style type="text/css"></style></defs><path d="M77.295484 899.79871c0-256.990968 193.569032-465.094194 432.061935-465.094194s432.061935 208.103226 432.061936 465.094194" fill="#D7E8F7" p-id="25606"></path><path d="M67.385806 814.575484h887.907097v80.59871H67.385806z" fill="#E3E0D7" p-id="25607"></path><path d="M377.889032 809.290323h272.185807v33.032258H377.889032zM229.904516 700.283871h558.245161v109.006452H229.904516zM169.785806 658.663226h683.767742v37.656774H169.785806zM381.852903 545.692903h258.312258v32.371613H381.852903zM398.369032 461.130323h229.904516v45.584516H398.369032zM411.581935 382.513548h198.854194v41.620646H411.581935zM429.419355 313.145806h165.821935v36.335484H429.419355zM441.310968 244.43871h141.378064v40.299355H441.310968z" fill="#F53320" p-id="25608"></path><path d="M155.912258 802.023226h5.285161v15.855484h-5.285161zM262.936774 802.023226h5.285161v15.855484h-5.285161zM856.196129 802.023226h5.285161v16.516129h-5.285161zM758.420645 802.023226h3.303226v16.516129h-3.303226z" fill="#E3E0D7" p-id="25609"></path><path d="M280.113548 582.028387l-15.194838 72.670968H759.741935l-17.176774-72.670968zM278.792258 565.512258h14.534194v11.891613h-14.534194zM728.030968 565.512258h14.534193v11.891613h-14.534193zM368.64 510.67871l-11.230968 11.891613 11.891613 19.158709h284.07742l11.891612-19.819355-11.230967-11.230967zM387.79871 428.75871l-11.891613 10.570322 11.891613 17.83742h248.40258l11.891613-17.83742-11.891613-10.570322zM403.654194 353.445161l-11.230968 9.249033 11.891613 15.855483h215.370322l11.891613-15.855483-11.230968-9.249033zM418.188387 288.701935l-10.570322 7.267097 11.230967 12.552258h186.301936l11.230967-13.212903-10.570322-6.606452zM498.787097 206.781935L421.491613 231.225806l10.570322 9.249033h158.554839l10.570323-10.570323-77.295484-23.122581zM502.090323 149.966452h20.48v52.190967H502.090323z" fill="#FAC72E" p-id="25610"></path><path d="M864.123871 800.04129h-10.570323v10.570323H792.774194V700.283871h64.743225v-45.584516H759.741935l-13.212903-74.652903V561.548387h-23.12258v15.855484h-79.27742v-32.371613h11.230968l15.194839-24.443871-15.194839-14.534193h-27.086452v-45.584517h9.909678l15.194839-22.461935-15.194839-13.873548h-23.122581v-41.620646h7.267097l15.194839-20.48-15.194839-13.212903h-23.122581v-36.335484H607.793548l15.855484-18.498064-15.855484-9.249032h-19.819354V244.43871h5.285161l16.516129-16.516129-82.580645-24.443871v-56.815484h-28.407742V203.47871l-83.901936 26.425806 16.516129 15.194839h6.606452v40.299355h-20.48l-15.194839 9.909677 15.855484 17.837419h8.588387v36.335484h-23.12258l-0.660646 0.660645-15.194838 12.552259L402.993548 383.174194h5.945807v41.620645h-21.80129l-0.660646 0.660645-14.534193 13.873548 15.194839 21.801291h8.588387v45.584516h-27.086452l-0.660645 0.660645-15.855484 14.534193 15.194839 23.783226h11.230967v32.371613H297.290323V561.548387h-23.122581v19.819355h0.660645l-12.552258 72.670968H165.821935V699.623226h64.743226v110.327742h-66.064516l0.660645-10.570323h-10.570322v10.570323H63.421935V898.477419h896.495484v-88.526451h-95.793548v-9.909678z m-102.4 9.249033h-3.303226v-5.285162h3.303226v5.285162z m-6.606452-9.249033v9.249033h-65.403871V700.283871H779.56129v109.006452h-13.212903v-9.249033h-11.230968z m-488.877419 9.249033h-3.303226v-5.285162h3.303226v5.285162z m-7.267097-9.249033v9.249033h-15.194838v-108.345807h-3.963871v108.345807h-5.285162V700.283871H442.632258v137.414194h-64.743226v-28.407742h-31.050322v-108.345807h-3.963871v108.345807h-3.963871v-108.345807h-3.963871v108.345807h-64.743226v-9.249033h-11.230968z m304.55742 38.31742V700.283871h5.285161v138.074839h-5.285161z m-3.963871 0H455.845161V700.283871h103.721291v138.074839z m-107.685162-0.660645h-5.285161V700.283871h5.285161v137.414194z m196.872258 1.32129l-75.313548-0.660645V700.283871h103.72129v109.006452h-28.407742v29.729032z m32.371613-29.729032V700.283871h3.963871v109.006452h-3.963871z m107.685162 0h-5.285162V700.283871h5.285162v109.006452z m-60.779355-243.778065h14.534193v11.891613h-14.534193v-11.891613zM521.909677 202.818065h-19.819354v-52.190968h19.819354v52.190968zM421.491613 231.225806l77.295484-24.443871h25.104516L601.187097 229.904516l-10.570323 10.570323H432.061935L421.491613 231.225806z m19.819355 13.212904h141.378064v40.299355H521.909677v-11.891613c0-5.945806-4.624516-10.570323-10.570322-10.570323-5.945806 0-10.570323 4.624516-10.570323 10.570323v11.891613h-59.458064V244.43871z m76.634838 27.747096V284.077419h-13.212903v-11.891613c0-3.963871 3.303226-6.606452 6.606452-6.606451 3.963871 0 6.606452 3.303226 6.606451 6.606451z m-110.327741 23.783226l11.230967-7.267097H605.811613l11.230968 6.606452-11.230968 13.873548H418.849032l-11.230967-13.212903z m21.80129 17.176774h165.16129v36.335484H523.230968v-10.570322c0-6.606452-5.285161-11.891613-11.891613-11.891613s-11.891613 5.285161-11.891613 11.891613v10.570322H429.419355v-36.335484z m89.847742 25.104517v10.570322h-15.855484v-10.570322c0-4.624516 3.303226-7.927742 7.927742-7.927742s7.927742 3.963871 7.927742 7.927742z m-126.843871 24.443871l11.230968-9.909678h216.030967l11.230968 9.909678-11.891613 15.855483H403.654194l-11.230968-15.855483z m19.158709 19.819354h198.854194v41.620646h-85.883871v-12.552259c0-7.267097-5.945806-12.552258-12.552258-12.552258-7.267097 0-12.552258 5.945806-12.552258 12.552258v12.552259H411.581935v-41.620646z m109.006452 29.068387v12.552259h-17.176774v-12.552259c0-4.624516 3.963871-8.588387 8.588387-8.588387 4.624516 0 8.588387 3.963871 8.588387 8.588387z m-144.68129 27.747097l11.891613-11.230967h248.40258l11.891613 10.570322-11.891613 17.837419H387.79871l-11.891613-17.176774z m22.461935 21.801291h225.940645v45.584516H524.552258v-19.819355c0-7.267097-5.945806-12.552258-12.552258-12.552258-7.267097 0-12.552258 5.945806-12.552258 12.552258v19.819355H398.369032v-45.584516z m122.219355 25.765161v19.819355h-17.176774v-19.819355c0-4.624516 3.963871-8.588387 8.588387-8.588387 4.624516 0 8.588387 3.963871 8.588387 8.588387z m-163.179355 35.674839l11.891613-11.891613H654.03871l11.891613 11.230967-11.891613 19.819355H368.64l-11.230968-19.158709z m24.443871 23.12258H640.825806v32.371613H524.552258V568.154839c0-7.267097-5.945806-12.552258-12.552258-12.552258h-1.32129c-7.267097 0-12.552258 5.945806-12.552258 12.552258v9.909677H381.852903v-32.371613z m130.147097 13.212903c4.624516 0 8.588387 3.963871 8.588387 8.588388v9.909677H502.090323V568.154839c0-4.624516 3.963871-8.588387 8.588387-8.588387h1.32129z m-218.673548 19.15871h-14.534194v-11.891613h14.534194v11.891613z m-17.176775 25.104516v41.620645c0 1.32129 0.660645 1.981935 1.981936 1.981936 1.32129 0 1.981935-0.660645 1.981935-1.981936v-62.76129h26.425807v62.76129c0 1.32129 0.660645 1.981935 1.981935 1.981936 1.32129 0 1.981935-0.660645 1.981936-1.981936v-62.76129h27.086451v62.76129c0 1.32129 0.660645 1.981935 1.981936 1.981936 1.32129 0 1.981935-0.660645 1.981935-1.981936v-62.76129h27.086452v62.76129c0 1.32129 0.660645 1.981935 1.981935 1.981936 1.32129 0 1.981935-0.660645 1.981936-1.981936v-62.76129h28.407742v62.76129c0 1.32129 0.660645 1.981935 1.981935 1.981936 1.32129 0 1.981935-0.660645 1.981936-1.981936v-62.76129h27.086451v62.76129c0 1.32129 0.660645 1.981935 1.981936 1.981936s1.981935-0.660645 1.981935-1.981936v-62.76129h27.086452v62.76129c0 1.32129 0.660645 1.981935 1.981936 1.981936 1.32129 0 1.981935-0.660645 1.981935-1.981936v-62.76129h27.086452v62.76129c0 1.32129 0.660645 1.981935 1.981935 1.981936 1.32129 0 1.981935-0.660645 1.981936-1.981936v-62.76129h27.086451v62.76129c0 1.32129 0.660645 1.981935 1.981936 1.981936 1.32129 0 1.981935-0.660645 1.981935-1.981936v-62.76129h27.086452v62.76129c0 1.32129 0.660645 1.981935 1.981935 1.981936 1.32129 0 1.981935-0.660645 1.981936-1.981936v-62.76129h27.086451v62.76129c0 1.32129 0.660645 1.981935 1.981936 1.981936 1.32129 0 1.981935-0.660645 1.981935-1.981936v-62.76129h27.086452v62.76129c0 1.32129 0.660645 1.981935 1.981935 1.981936 1.32129 0 1.981935-0.660645 1.981936-1.981936v-62.76129h28.407742v62.76129c0 1.32129 0.660645 1.981935 1.981935 1.981936 1.32129 0 1.981935-0.660645 1.981936-1.981936v-62.76129h27.086451v62.76129c0 1.32129 0.660645 1.981935 1.981936 1.981936 1.32129 0 1.981935-0.660645 1.981935-1.981936v-62.76129h27.086452v62.76129c0 1.32129 0.660645 1.981935 1.981936 1.981936 1.32129 0 1.981935-0.660645 1.981935-1.981936v-62.76129h27.086452v62.76129c0 1.32129 0.660645 1.981935 1.981935 1.981936 1.32129 0 1.981935-0.660645 1.981936-1.981936v-41.620645l9.249032 51.530323h-488.87742l7.927742-51.530323z m-106.363871 55.494194h683.767742v37.656774H169.125161v-37.656774z m785.507097 155.912258v80.59871H67.385806v-80.59871h89.847742v-10.570323h2.642581l-0.660645 10.570323h103.060645v-1.32129h3.303226v1.32129h108.345806v28.407742l278.792258 1.32129v-29.729032h105.703226v-1.32129h3.303226v1.32129h95.793548v-10.570323h1.981936l-0.660645 10.570323h96.454193zM22.461935 592.59871h-13.212903c-5.285161 0-9.249032 3.963871-9.249032 8.588387 0 4.624516 3.963871 8.588387 8.588387 8.588387h13.212903c4.624516 0 8.588387-3.963871 8.588387-8.588387 0.660645-4.624516-3.303226-8.588387-7.927742-8.588387z m0 13.873548h-13.212903c-2.642581 0-4.624516-1.981935-4.624516-4.624516 0-2.642581 1.981935-4.624516 4.624516-4.624516h13.212903c2.642581 0 4.624516 1.981935 4.624517 4.624516 0 1.981935-1.981935 4.624516-4.624517 4.624516z" p-id="25611"></path><path d="M212.727742 603.169032c0-4.624516-3.963871-8.588387-8.588387-8.588387h-56.815484c-0.660645-0.660645-1.981935-2.642581-1.32129-3.963871 0-1.32129 1.32129-3.303226 1.981935-4.624516h19.15871c4.624516 0 8.588387-3.963871 8.588387-8.588387 0-4.624516-3.963871-8.588387-8.588387-8.588387H78.616774c-4.624516 0-8.588387 3.963871-8.588387 8.588387 0 4.624516 3.963871 8.588387 8.588387 8.588387h16.516129c0.660645 1.32129 1.981935 2.642581 1.981936 3.963871 0 1.32129-1.32129 2.642581-1.981936 3.963871h-46.245161c-4.624516 0-8.588387 3.963871-8.588387 8.588387 0 4.624516 3.963871 8.588387 8.588387 8.588387h154.590968c5.285161 0.660645 9.249032-3.303226 9.249032-7.927742zM967.845161 371.943226h-56.815484c-0.660645-0.660645-1.981935-2.642581-1.32129-3.963871 0-1.32129 1.32129-3.303226 1.981936-4.624516h19.158709c4.624516 0 8.588387-3.963871 8.588387-8.588387 0-4.624516-3.963871-8.588387-8.588387-8.588387h-107.685161c-4.624516 0-8.588387 3.963871-8.588387 8.588387 0 4.624516 3.963871 8.588387 8.588387 8.588387h21.80129c0.660645 1.32129 1.981935 2.642581 1.981936 3.963871 0 1.32129-1.32129 2.642581-1.981936 3.963871H772.954839c-4.624516 0-8.588387 3.963871-8.588387 8.588387 0 4.624516 3.963871 8.588387 8.588387 8.588387h194.890322c4.624516 0 8.588387-3.963871 8.588387-8.588387 0.660645-3.963871-3.303226-7.927742-8.588387-7.927742z" fill="#4C94FC" p-id="25612"></path><path d="M1015.411613 370.621935h-13.212903c-4.624516 0-8.588387 3.963871-8.588387 8.588388 0 4.624516 3.963871 8.588387 8.588387 8.588387h13.212903c4.624516 0 8.588387-3.963871 8.588387-8.588387s-3.963871-8.588387-8.588387-8.588388z m0 13.873549h-13.212903c-2.642581 0-4.624516-1.981935-4.624516-4.624516 0-2.642581 1.981935-4.624516 4.624516-4.624516h13.212903c2.642581 0 4.624516 1.981935 4.624516 4.624516 0 1.981935-1.981935 4.624516-4.624516 4.624516zM255.009032 497.465806c6.606452 0 11.230968-5.285161 11.230968-11.230967 0-6.606452-5.285161-11.230968-11.230968-11.230968-6.606452 0-11.230968 5.285161-11.230967 11.230968 0 5.945806 4.624516 11.230968 11.230967 11.230967zM718.781935 433.383226c0 3.303226 2.642581 5.945806 5.945807 5.945806s5.945806-2.642581 5.945806-5.945806-2.642581-5.945806-5.945806-5.945807-5.945806 2.642581-5.945807 5.945807zM335.607742 389.780645c6.606452 0 11.230968-5.285161 11.230968-11.230968 0-6.606452-5.285161-11.230968-11.230968-11.230967-6.606452 0-11.230968 5.285161-11.230968 11.230967 0 5.945806 5.285161 11.230968 11.230968 11.230968z m0-19.15871c3.963871 0 7.267097 3.303226 7.267097 7.267097 0 3.963871-3.303226 7.267097-7.267097 7.267097-3.963871 0-7.267097-3.303226-7.267097-7.267097 0-3.963871 3.303226-7.267097 7.267097-7.267097zM233.868387 465.094194c1.981935 0 3.963871-1.981935 3.963871-3.963871s-1.981935-3.963871-3.963871-3.963871-3.963871 1.981935-3.963871 3.963871 1.981935 3.963871 3.963871 3.963871zM711.514839 408.27871c1.981935 0 3.963871-1.981935 3.963871-3.963871s-1.981935-3.963871-3.963871-3.963871-3.963871 1.981935-3.963871 3.963871 1.981935 3.963871 3.963871 3.963871zM290.023226 334.286452c0 1.32129 1.32129 2.642581 2.64258 2.64258h13.212904c1.32129 0 2.642581-1.32129 2.64258-2.64258s-1.32129-2.642581-2.64258-2.642581h-13.212904c-1.32129 0-2.642581 1.32129-2.64258 2.642581zM285.39871 357.409032c1.32129 0 2.642581-1.32129 2.64258-2.64258v-13.212904c0-1.32129-1.32129-2.642581-2.64258-2.64258s-2.642581 1.32129-2.642581 2.64258v13.212904c0 1.32129 1.32129 2.642581 2.642581 2.64258zM278.792258 330.983226c1.32129 1.32129 2.642581 1.32129 3.963871 0 1.32129-1.32129 1.32129-2.642581 0-3.963871L273.507097 317.109677c-1.32129-1.32129-2.642581-1.32129-3.963871 0-1.32129 1.32129-1.32129 2.642581 0 3.963871l9.249032 9.909678z" p-id="25613"></path><path d="M264.91871 336.268387h13.212903c1.32129 0 2.642581-1.32129 2.642581-2.642581s-1.32129-2.642581-2.642581-2.64258h-13.212903c-1.32129 0-2.642581 1.32129-2.642581 2.64258s1.32129 2.642581 2.642581 2.642581zM286.059355 329.661935c1.32129 0 2.642581-1.32129 2.64258-2.64258v-13.212903c0-1.32129-1.32129-2.642581-2.64258-2.642581s-2.642581 1.32129-2.642581 2.642581v13.212903c0 1.32129 1.32129 2.642581 2.642581 2.64258zM297.950968 350.802581c1.32129 1.32129 2.642581 1.32129 3.963871 0 1.32129-1.32129 1.32129-2.642581 0-3.963871l-9.249033-9.249033c-1.32129-1.32129-2.642581-1.32129-3.963871 0-1.32129 1.32129-1.32129 2.642581 0 3.963871l9.249033 9.249033z" p-id="25614"></path><path d="M282.095484 336.929032c-1.32129-1.32129-2.642581-1.32129-3.963871 0l-9.249032 9.249033c-1.32129 1.32129-1.32129 2.642581 0 3.96387 1.32129 1.32129 2.642581 1.32129 3.963871 0l9.249032-9.249032c1.32129-1.32129 1.32129-2.642581 0-3.963871zM288.701935 330.983226c1.32129 1.32129 2.642581 1.32129 3.963871 0l9.249033-9.249032c1.32129-1.32129 1.32129-2.642581 0-3.963871-1.32129-1.32129-2.642581-1.32129-3.963871 0l-9.249033 9.249032c-0.660645 1.32129-0.660645 3.303226 0 3.963871zM716.8 315.127742h5.285161v5.285161c0 3.963871 3.303226 6.606452 6.606452 6.606452 3.963871 0 6.606452-3.303226 6.606452-6.606452v-5.285161h5.285161c3.963871 0 6.606452-3.303226 6.606451-6.606452 0-3.963871-3.303226-6.606452-6.606451-6.606451h-5.285161v-5.285162c0-3.963871-3.303226-6.606452-6.606452-6.606451-3.963871 0-6.606452 3.303226-6.606452 6.606451v5.285162h-5.285161c-3.963871 0-6.606452 3.303226-6.606452 6.606451-0.660645 3.303226 2.642581 6.606452 6.606452 6.606452zM806.647742 274.828387h1.32129v1.32129c0 3.303226 2.642581 5.285161 5.285162 5.285162 3.303226 0 5.285161-2.642581 5.285161-5.285162v-1.32129h1.32129c3.303226 0 5.285161-2.642581 5.285161-5.285161s-2.642581-5.285161-5.285161-5.285161h-1.32129v-1.321291c0-3.303226-2.642581-5.285161-5.285161-5.285161-3.303226 0-5.285161 2.642581-5.285162 5.285161v1.321291h-1.32129c-3.303226 0-5.285161 2.642581-5.285161 5.285161s2.642581 5.285161 5.285161 5.285161z" p-id="25615"></path></svg>