<?xml version="1.0" encoding="UTF-8"?>
<svg width="117px" height="76px" viewBox="0 0 117 76" version="1.1" xmlns="http://www.w3.org/2000/svg" xmlns:xlink="http://www.w3.org/1999/xlink">
    <title>编组 27</title>
    <defs>
        <linearGradient x1="50%" y1="-14.1939066%" x2="50%" y2="99.0866134%" id="linearGradient-1">
            <stop stop-color="#68EFEC" offset="0%"></stop>
            <stop stop-color="#A16EFA" offset="100%"></stop>
        </linearGradient>
    </defs>
    <g id="页面-1" stroke="none" stroke-width="1" fill="none" fill-rule="evenodd">
        <g id="Ant-V-PC-版本" transform="translate(-256.000000, -1502.000000)">
            <g id="编组-24" transform="translate(0.000000, 1245.000000)">
                <g id="Group备份" transform="translate(226.000000, 204.000000)">
                    <g id="编组-27" transform="translate(32.462406, 53.525000)">
                        <path d="M5.78177958,4.86087125 C5.78177958,2.17628619 7.95897379,-2.13162821e-14 10.6506669,-2.13162821e-14 L104.013667,-2.13162821e-14 C106.70268,-2.13162821e-14 108.882555,2.17557307 108.882555,4.86087125 L108.882555,70.5499815 C108.882555,73.2345665 106.705361,75.4108527 104.013667,75.4108527 L10.6506669,75.4108527 C7.9616547,75.4108527 5.78177958,73.2352796 5.78177958,70.5499815 L5.78177958,4.86087125 Z" id="Rectangle-13-Copy" fill-opacity="0.696315632" fill="#3118DA"></path>
                        <path d="M31.1630502,22.1010467 C44.8488214,22.1010467 52.6736861,46.5878443 65.8242368,46.5878443 C78.9747876,46.5878443 76.5144013,36.146459 88.4622322,36.146459 C100.410063,36.146459 107.920367,47.530748 107.920367,47.530748 C108.444726,48.2401391 108.853882,49.5456824 108.834396,50.4396738 L108.402629,70.2491871 C108.344225,72.9287952 106.121521,75.1010467 103.441495,75.1010467 L10.7003183,75.1010467 C8.01876431,75.1010467 5.84493527,72.9240609 5.84493527,70.2368463 L5.84493527,46.1373358 C5.84493527,46.1373358 17.4772789,22.1010467 31.1630502,22.1010467 Z" id="Rectangle-13-Copy" fill="url(#linearGradient-1)" opacity="0.787025088" transform="translate(57.344935, 48.601047) scale(-1, 1) translate(-57.344935, -48.601047) "></path>
                        <path d="M11.7925935,21.13 C11.7925935,20.458974 12.3318893,19.915 13.0075935,19.915 L13.0075935,19.915 C13.6786195,19.915 14.2225935,20.4542958 14.2225935,21.13 L14.2225935,21.13 C14.2225935,21.801026 13.6832978,22.345 13.0075935,22.345 L13.0075935,22.345 C12.3365676,22.345 11.7925935,21.8057042 11.7925935,21.13 L11.7925935,21.13 Z" id="Rectangle-12" fill="#FFFFFF" opacity="0.554383"></path>
                        <path d="M0,50.4416547 C0,50.4416547 19.2300308,21.13 30.0106896,21.13 C40.7913483,21.13 53.8627415,43.7148308 64.1543818,47.0031742 C74.4460221,50.2915177 75.2925708,33.3126282 89.4247315,34.9484453 C103.556892,36.5842623 112.640164,60.8596343 112.640164,60.8596343" id="Path-10" stroke="#68EFEC" stroke-width="3.24" stroke-linecap="round" transform="translate(56.320082, 40.994817) scale(-1, 1) translate(-56.320082, -40.994817) "></path>
                        <text id="251" font-family="Helvetica" font-size="12.96" font-weight="normal" fill="#FFFFFF">
                            <tspan x="13.535992" y="15.905">251 </tspan>
                        </text>
                        <path d="M16.6525935,21.13 C16.6525935,20.458974 17.1900616,19.915 17.8749599,19.915 L34.0602272,19.915 C34.7353215,19.915 35.2825935,20.4542958 35.2825935,21.13 L35.2825935,21.13 C35.2825935,21.801026 34.7451255,22.345 34.0602272,22.345 L17.8749599,22.345 C17.1998656,22.345 16.6525935,21.8057042 16.6525935,21.13 L16.6525935,21.13 Z" id="Rectangle-12" fill="#FFFFFF" opacity="0.554383"></path>
                        <line x1="31.9675935" y1="4.54747351e-13" x2="31.9675935" y2="75.4108527" id="路径-7" stroke-opacity="0.21819172" stroke="#FFE6B8" stroke-dasharray="3"></line>
                        <line x1="56.9675935" y1="4.54747351e-13" x2="56.9675935" y2="75.4108527" id="路径-7备份" stroke-opacity="0.21819172" stroke="#FFE6B8" stroke-dasharray="3"></line>
                        <line x1="81.9675935" y1="4.54747351e-13" x2="81.9675935" y2="75.4108527" id="路径-7备份-2" stroke-opacity="0.21819172" stroke="#FFE6B8" stroke-dasharray="3"></line>
                        <g id="眼睛备份" transform="translate(75.537594, 12.475000)" fill-rule="nonzero">
                            <rect id="矩形" fill="#000000" opacity="0" x="0" y="0" width="16" height="16"></rect>
                            <path d="M8,3 C10.4445,3 12.6253333,4.54266667 14.5376667,7.55633333 C14.7097355,7.82708582 14.7097355,8.17291418 14.5376667,8.44366667 C12.6253333,11.4573333 10.4445,13 8,13 C5.5555,13 3.37466667,11.4573333 1.46233333,8.44366667 C1.29026446,8.17291418 1.29026446,7.82708582 1.46233333,7.55633333 C3.37466667,4.54266667 5.5555,3 8,3 Z M8,5 C6.34316667,5 5,6.34316667 5,8 C5,9.65683333 6.34316667,11 8,11 C9.65683333,11 11,9.65683333 11,8 C11,6.34316667 9.65683333,5 8,5 Z M8,10 C9.1045,10 10,9.1045 10,8 C10,6.8955 9.1045,6 8,6 C6.8955,6 6,6.8955 6,8 C6,9.1045 6.8955,10 8,10 Z" id="形状" fill="#F3F5F8"></path>
                            <path d="M8,10 C9.1045,10 10,9.1045 10,8 C10,6.8955 9.1045,6 8,6 C6.8955,6 6,6.8955 6,8 C6,9.1045 6.8955,10 8,10 Z" id="路径" fill="#FFFFFF"></path>
                        </g>
                    </g>
                </g>
            </g>
        </g>
    </g>
</svg>