<?xml version="1.0" standalone="no"?><!DOCTYPE svg PUBLIC "-//W3C//DTD SVG 1.1//EN" "http://www.w3.org/Graphics/SVG/1.1/DTD/svg11.dtd"><svg t="1622083807450" class="icon" viewBox="0 0 1024 1024" version="1.1" xmlns="http://www.w3.org/2000/svg" p-id="14612" xmlns:xlink="http://www.w3.org/1999/xlink" width="32" height="32"><defs><style type="text/css"></style></defs><path d="M883.7 849.6V423.2c0-15.7-12.9-28.6-28.6-28.6H167c-15.7 0-28.6 12.9-28.6 28.6v426.4h745.3z" fill="#D1D3D3" p-id="14613"></path><path d="M138.3 750.5H221v39.8h-82.7zM179.7 640h82.7v39.8h-82.7zM657 646.3h82.7v39.8H657zM801 666.2h82.7V706H801zM732.8 758.2h82.7V798h-82.7zM295.8 690.8h82.7v39.8h-82.7z" fill="" p-id="14614"></path><path d="M855.1 394.6H167c-15.7 0-28.6 12.9-28.6 28.6v198.9h745.4V423.2c-0.1-15.7-12.9-28.6-28.7-28.6z" fill="#0071CE" p-id="14615"></path><path d="M337.1 622.1h347.8v227.5H337.1z" fill="#FFFFFF" p-id="14616"></path><path d="M958.3 863.4c0 4.2-3.5 7.7-7.7 7.7H71.4c-4.2 0-7.7-3.5-7.7-7.7v-27.6c0-4.2 3.5-7.7 7.7-7.7h879.2c4.2 0 7.7 3.5 7.7 7.7v27.6z" fill="#333E48" p-id="14617"></path><path d="M496.7 622.1h28.6v206h-28.6z" fill="#00B3E3" p-id="14618"></path><path d="M337.1 622.1h347.8v40.2H337.1z" fill="" p-id="14619"></path><path d="M333.243 168.145l83.656 47.707-14.169 24.845-83.656-47.707z" fill="#00B3E3" p-id="14620"></path><path d="M333.2 168.2L319 193l36 20.5c7.2-6.3 12.4-15 14.2-24.9l-36-20.4z" fill="" p-id="14621"></path><path d="M677.6 222.4c4.2-11.4-2.3-20.8-14.5-20.8H406.4c-12.2 0-21.3 9.9-20.2 22.1l8.5 95.3c1.1 12.2 12 22.1 24.2 22.1h192.5c12.2 0 25.7-9.4 29.9-20.8l36.3-97.9z" fill="#A4A9AD" p-id="14622"></path><path d="M445.6 367.9m-26.7 0a26.7 26.7 0 1 0 53.4 0 26.7 26.7 0 1 0-53.4 0Z" fill="#333E48" p-id="14623"></path><path d="M326.1 180.6m-26.7 0a26.7 26.7 0 1 0 53.4 0 26.7 26.7 0 1 0-53.4 0Z" fill="#333E48" p-id="14624"></path><path d="M569.7 367.9m-26.7 0a26.7 26.7 0 1 0 53.4 0 26.7 26.7 0 1 0-53.4 0Z" fill="#333E48" p-id="14625"></path><path d="M386.9 231.8l2.6 28.6h274l10.6-28.6H386.9z m6.9 77.3h251.7l10.6-28.6H391.3l2.5 28.6z" fill="" p-id="14626"></path><path d="M815.5 492.4H461.8c-7.9 0-14.3-6.4-14.3-14.3s6.4-14.3 14.3-14.3h353.6c7.9 0 14.3 6.4 14.3 14.3 0.1 7.9-6.3 14.3-14.2 14.3z" fill="#00B3E3" p-id="14627"></path><path d="M815.5 551.4H461.8c-7.9 0-14.3-6.4-14.3-14.3s6.4-14.3 14.3-14.3h353.6c7.9 0 14.3 6.4 14.3 14.3 0.1 7.9-6.3 14.3-14.2 14.3z" fill="#FFB819" p-id="14628"></path><path d="M949.5 762.4c0-36.3-29.5-161.1-65.8-161.1s-65.8 124.8-65.8 161.1 29.5 65.8 65.8 65.8c36.4-0.1 65.8-29.5 65.8-65.8zM204.1 762.4c0-36.3-29.5-161.1-65.8-161.1S72.5 726.1 72.5 762.4s29.5 65.8 65.8 65.8c36.4-0.1 65.8-29.5 65.8-65.8z" fill="#00AD68" p-id="14629"></path><path d="M287.8 394.6h65v227.5h-65z" fill="#00B3E3" p-id="14630"></path><path d="M222.8 394.6h65v227.5h-65z" fill="#FFB819" p-id="14631"></path><path d="M288.8 828.1h444.5v43H288.8z" fill="#A4A9AD" p-id="14632"></path></svg>