<?xml version="1.0" standalone="no"?><!DOCTYPE svg PUBLIC "-//W3C//DTD SVG 1.1//EN" "http://www.w3.org/Graphics/SVG/1.1/DTD/svg11.dtd"><svg t="1622082491852" class="icon" viewBox="0 0 1024 1024" version="1.1" xmlns="http://www.w3.org/2000/svg" p-id="4677" xmlns:xlink="http://www.w3.org/1999/xlink" width="32" height="32"><defs><style type="text/css"></style></defs><path d="M883.678 132.132a21.36 21.36 0 0 0-22.718 2.968c-48.09 40.22-106.09 61.5-167.654 61.5-60.964 0-120.622-21.842-167.996-61.5-55.778-46.498-123.058-71.092-194.62-71.092-69.56 0-137.714 24.532-192.278 69.124-6.25 3.75-10.404 10.562-10.404 18.344v465.05c0 8.282 4.78 15.812 12.28 19.312a21.344 21.344 0 0 0 22.718-2.968c48.062-40.186 106.06-61.404 167.684-61.404s119.592 21.218 167.652 61.436c54.936 45.844 124.186 71.094 194.962 71.094 69.562 0 137.716-24.532 192.278-69.156a21.332 21.332 0 0 0 10.406-18.312V151.476a21.404 21.404 0 0 0-12.31-19.344z" fill="#E6E9ED" p-id="4678"></path><path d="M703.994 703.808c65.812-2.376 129.842-26.624 181.59-68.968a21.332 21.332 0 0 0 10.406-18.312V151.476c0-8.282-4.812-15.812-12.312-19.344a21.36 21.36 0 0 0-22.718 2.968c-45.31 37.906-99.372 58.936-156.964 61.28v507.428zM511.624 124.32c-52.936-39.498-115.124-60.31-180.934-60.31-3.562 0-7.124 0.094-10.688 0.218v507.458c3.532-0.156 7.094-0.218 10.688-0.218 61.624 0 119.592 21.218 167.652 61.436a300.556 300.556 0 0 0 13.282 10.438V124.32z" fill="#434A54" p-id="4679"></path><path d="M138.414 133.132c-6.25 3.75-10.404 10.562-10.404 18.344v465.05c0 8.282 4.78 15.812 12.28 19.312a21.344 21.344 0 0 0 22.718-2.968c45.282-37.842 99.374-58.874 156.996-61.186V64.228c-65.81 2.376-129.808 26.594-181.59 68.904z" fill="#E6E9ED" p-id="4680"></path><path d="M312.316 323.348c-65.342 0-129.558 17.876-184.306 50.81v242.37c0 8.282 4.78 15.812 12.28 19.312a21.344 21.344 0 0 0 22.718-2.968c45.282-37.842 99.374-58.874 156.996-61.186V323.442a307.92 307.92 0 0 0-7.688-0.094z" fill="#434A54" p-id="4681"></path><path d="M511.624 643.34V383.69c-56.248-38.124-121.966-58.842-191.622-60.248v248.244c3.532-0.156 7.094-0.218 10.688-0.218 61.624 0 119.592 21.218 167.652 61.436a301.686 301.686 0 0 0 13.282 10.436zM895.99 616.528V394.72c-52.904 40.032-116.622 61.218-184.308 61.218-2.562 0-5.124-0.062-7.688-0.124v247.996c65.812-2.376 129.842-26.624 181.59-68.968a21.34 21.34 0 0 0 10.406-18.314z" fill="#E6E9ED" p-id="4682"></path><path d="M149.32 1023.988a21.296 21.296 0 0 1-21.31-21.312V21.354C128.01 9.572 137.54 0.012 149.32 0.012s21.344 9.562 21.344 21.342v981.322c0 11.782-9.562 21.312-21.344 21.312z" fill="#ED5564" p-id="4683"></path><path d="M703.994 455.814c-64.464-1.594-127.152-23.218-177.34-61.374a358.74 358.74 0 0 0-15.03-10.75V643.34c52.624 39.218 116.498 60.656 181.682 60.656 3.562 0 7.124-0.062 10.688-0.188V455.814z" fill="#434A54" p-id="4684"></path></svg>