<?xml version="1.0" encoding="UTF-8"?>
<svg width="47px" height="47px" viewBox="0 0 47 47" version="1.1" xmlns="http://www.w3.org/2000/svg" xmlns:xlink="http://www.w3.org/1999/xlink">
    <!-- Generator: Sketch 59.1 (86144) - https://sketch.com -->
    <title>编组 11</title>
    <desc>Created with Sketch.</desc>
    <g id="页面-1" stroke="none" stroke-width="1" fill="none" fill-rule="evenodd">
        <g id="Ant-V-子产品首页" transform="translate(-162.000000, -1874.000000)">
            <g id="编组-11" transform="translate(162.000000, 1874.000000)">
                <rect id="矩形备份-20" stroke="#A3B1BF" fill="#FAFBFC" x="0.5" y="0.5" width="46" height="46"></rect>
                <g id="arrowleft备份" transform="translate(24.000000, 24.000000) scale(-1, 1) translate(-24.000000, -24.000000) translate(16.000000, 16.000000)"></g>
                <rect id="矩形" fill="#000000" fill-rule="nonzero" opacity="0" transform="translate(24.000000, 24.000000) scale(-1, 1) translate(-24.000000, -24.000000) " x="16" y="16" width="16" height="16"></rect>
                <path d="M29.6253906,23.40625 L20.4832031,23.40625 L25.9550781,18.65625 C26.0425781,18.5796875 25.9894531,18.4375 25.8738281,18.4375 L24.4910156,18.4375 C24.4300781,18.4375 24.3722656,18.459375 24.3269531,18.4984375 L18.4222656,23.621875 C18.1925781,23.821875 18.1925781,24.178125 18.4222656,24.3765625 L24.3613281,29.53125 C24.3847656,29.5515625 24.4128906,29.5625 24.4425781,29.5625 L25.8722656,29.5625 C25.9878906,29.5625 26.0410156,29.41875 25.9535156,29.34375 L20.4832031,24.59375 L29.6253906,24.59375 C29.6941406,24.59375 29.7503906,24.5375 29.7503906,24.46875 L29.7503906,23.53125 C29.7503906,23.4625 29.6941406,23.40625 29.6253906,23.40625 Z" id="路径" fill="#A3B1BF" fill-rule="nonzero" transform="translate(24.000195, 24.000000) scale(-1, 1) translate(-24.000195, -24.000000) "></path>
            </g>
        </g>
    </g>
</svg>