<?xml version="1.0" encoding="UTF-8"?>
<svg width="40px" height="40px" viewBox="0 0 40 40" version="1.1" xmlns="http://www.w3.org/2000/svg" xmlns:xlink="http://www.w3.org/1999/xlink">
    <!-- Generator: Sketch 58 (84663) - https://sketch.com -->
    <title>point</title>
    <desc>Created with Sketch.</desc>
    <g id="point" stroke="none" stroke-width="1" fill="none" fill-rule="evenodd">
        <path d="M36,15.6519533 C36,6.58041603 29.4784441,0 20.5,0 C11.9536467,0 5,7.02181634 5,15.6519533 C5,22.0243531 13.5714749,32.8158295 18.1787682,38.6149163 L18.5204214,39.0410959 C19.0027553,39.6499239 19.7262561,40 20.5050243,40 C21.2787682,40 22.002269,39.6499239 22.4896272,39.0410959 L22.8312804,38.6149163 C27.4285251,32.8158295 36,22.0243531 36,15.6519533 Z M20.419611,20.187722 C17.2593193,20.187722 14.6918963,17.5951294 14.6918963,14.4038559 C14.6918963,11.2125824 17.2593193,8.61998985 20.419611,8.61998985 C23.5799028,8.61998985 26.1473258,11.2125824 26.1473258,14.4038559 C26.1473258,17.5951294 23.5799028,20.187722 20.419611,20.187722 Z" id="Shape-Copy-5" fill="#5B8FF9" fill-rule="nonzero"></path>
    </g>
</svg>