<?xml version="1.0" encoding="UTF-8"?>
<svg width="110px" height="110px" viewBox="0 0 110 110" version="1.1" xmlns="http://www.w3.org/2000/svg" xmlns:xlink="http://www.w3.org/1999/xlink">
    <!-- Generator: Sketch 58 (84663) - https://sketch.com -->
    <title>1</title>
    <desc>Created with Sketch.</desc>
    <defs>
        <linearGradient x1="0%" y1="0%" x2="100%" y2="100%" id="linearGradient-1">
            <stop stop-color="#F6F062" offset="0%"></stop>
            <stop stop-color="#EC5251" offset="100%"></stop>
        </linearGradient>
    </defs>
    <g id="1" stroke="none" stroke-width="1" fill="none" fill-rule="evenodd">
        <g id="编组-23" transform="translate(7.000000, 4.000000)">
            <rect id="矩形备份-27" stroke="#000000" opacity="0" x="0" y="3" width="96" height="96"></rect>
            <g id="编组-22" transform="translate(9.000000, 0.000000)" fill="url(#linearGradient-1)" fill-rule="nonzero">
                <g id="编组-15">
                    <path d="M11.9297644,14.3968332 C11.6457938,12.9941042 12.8841042,11.7557938 14.2868332,12.0397644 L56.5508411,20.5957565 C57.3388434,20.7552809 57.9547191,21.3711566 58.1142435,22.1591589 L66.6702356,64.4231668 C66.9542062,65.8258958 65.7158958,67.0642062 64.3131668,66.7802356 L22.0491589,58.2242435 C21.2611566,58.0647191 20.6452809,57.4488434 20.4857565,56.6608411 L11.9297644,14.3968332 Z M16.4485224,16.5585224 L24.1430151,54.5669849 L62.1514776,62.2614776 L54.4569849,24.2530151 L16.4485224,16.5585224 Z" id="矩形备份-24" transform="translate(39.300000, 39.410000) rotate(-45.000000) translate(-39.300000, -39.410000) "></path>
                    <path d="M11.9297644,37.4371664 C11.6457938,36.0344374 12.8841042,34.796127 14.2868332,35.0800977 L56.5508411,43.6360897 C57.3388434,43.7956142 57.9547191,44.4114898 58.1142435,45.1994921 L66.6702356,87.4635001 C66.9542062,88.8662291 65.7158958,90.1045395 64.3131668,89.8205688 L22.0491589,81.2645767 C21.2611566,81.1050523 20.6452809,80.4891766 20.4857565,79.7011743 L11.9297644,37.4371664 Z M16.4485224,39.5988556 L24.1430151,77.6073181 L62.1514776,85.3018109 L54.4569849,47.2933484 L16.4485224,39.5988556 Z" id="矩形备份-33" transform="translate(39.300000, 62.450333) rotate(-45.000000) translate(-39.300000, -62.450333) "></path>
                </g>
            </g>
        </g>
    </g>
</svg>